<?xml version="1.0" encoding="utf-8"?>
<!-- Generator: Adobe Illustrator 16.0.4, SVG Export Plug-In . SVG Version: 6.00 Build 0)  -->
<!DOCTYPE svg PUBLIC "-//W3C//DTD SVG 1.1//EN" "http://www.w3.org/Graphics/SVG/1.1/DTD/svg11.dtd">
<svg version="1.1" id="Layer_1" xmlns="http://www.w3.org/2000/svg" xmlns:xlink="http://www.w3.org/1999/xlink" x="0px" y="0px"
	 width="1024px" height="1024px" viewBox="0 0 1024 1024" enable-background="new 0 0 1024 1024" xml:space="preserve">
<g>
	<defs>
		<rect id="SVGID_1_" x="-9" y="-11" width="1046" height="1048"/>
	</defs>
	<clipPath id="SVGID_2_">
		<use xlink:href="#SVGID_1_"  overflow="visible"/>
	</clipPath>
	<g clip-path="url(#SVGID_2_)">
		<path fill="#F7941E" d="M511.999,1236.753c-4.281,0-8.64-0.038-12.956-0.114l12.929-724.694c1.242,0.022-1.239,0.022,0,0
			l13.527,724.686C521.024,1236.713,516.483,1236.753,511.999,1236.753z M472.419,1235.683c-8.896-0.481-17.886-1.136-26.722-1.942
			l66.274-721.796c1.103,0.103-1.142-0.061,0,0L472.419,1235.683z M552.202,1235.648l-40.23-723.704c1.192-0.065-1.149,0.106,0,0
			l66.803,721.753C569.988,1234.505,561.05,1235.159,552.202,1235.648z M419.197,1230.834c-8.856-1.138-17.794-2.454-26.566-3.913
			l119.341-714.977c1.072,0.179-1.113-0.142,0,0L419.197,1230.834z M605.421,1230.753l-93.449-718.809c1.161-0.149-1.119,0.187,0,0
			l119.865,714.898C623.114,1228.298,614.225,1229.615,605.421,1230.753z M366.315,1222.043c-8.769-1.795-17.609-3.774-26.276-5.887
			l171.932-704.212c1.035,0.254-1.072-0.22,0,0L366.315,1222.043z M658.371,1221.903L511.972,511.944c1.158-0.237-1.099,0.271,0,0
			l172.45,704.1C675.839,1218.143,667.073,1220.113,658.371,1221.903z M314.099,1209.321c-8.594-2.436-17.248-5.063-25.719-7.81
			l223.592-689.567c1.032,0.333-1.069-0.304,0,0L314.099,1209.321z M710.437,1209.168L511.972,511.944c1.07-0.304-1.029,0.335,0,0
			l224.177,689.394C727.681,1204.09,719.03,1206.725,710.437,1209.168z M262.944,1192.736c-8.435-3.084-16.912-6.367-25.198-9.758
			l274.226-671.034c0.984,0.403-1.022-0.375,0,0L262.944,1192.736z M761.571,1192.549l-249.6-680.604c1.056-0.386-1.033,0.423,0,0
			l274.594,670.907C778.337,1186.22,769.927,1189.483,761.571,1192.549z M213.065,1172.346c-8.085-3.663-16.228-7.535-24.196-11.507
			l323.103-648.895c1.038,0.516-1.028-0.468,0,0L213.065,1172.346z M811.214,1172.219L511.972,511.944c1.038-0.471-0.998,0.497,0,0
			l323.361,648.791C827.411,1164.689,819.298,1168.553,811.214,1172.219z M164.968,1148.364c-7.782-4.25-15.597-8.705-23.229-13.243
			l370.233-623.177c1,0.595-1.011-0.552,0,0L164.968,1148.364z M859.049,1148.354L511.972,511.944c0.972-0.529-0.962,0.574,0,0
			l370.337,623.145C874.665,1139.637,866.841,1144.099,859.049,1148.354z M905.01,1121.011L511.972,511.944
			c0.952-0.614-0.945,0.661,0,0l415.199,594.163C919.898,1111.192,912.442,1116.208,905.01,1121.011z M118.875,1120.936
			c-7.454-4.814-14.917-9.835-22.183-14.92l415.28-594.071c0.943,0.659-0.971-0.63,0,0L118.875,1120.936z M948.747,1090.416
			L511.972,511.944c0.875-0.663-0.877,0.715,0,0l457.854,561.923C962.919,1079.499,955.828,1085.067,948.747,1090.416z
			 M74.99,1090.222c-7.067-5.349-14.126-10.895-20.98-16.486l457.962-561.791c0.902,0.735-0.936-0.711,0,0L74.99,1090.222z
			 M990.199,1056.624l-478.228-544.68c0.873-0.766-0.834,0.79,0,0l497.957,526.697
			C1003.498,1044.725,996.86,1050.775,990.199,1056.624z M33.589,1056.441c-6.636-5.832-13.265-11.879-19.702-17.968
			l498.085-526.529c0.86,0.813-0.866-0.764,0,0L33.589,1056.441z M1028.985,1019.952L511.972,511.944c0.791-0.804-0.781,0.858,0,0
			l535.401,488.595C1041.379,1007.104,1035.192,1013.636,1028.985,1019.952z M-5.196,1019.738
			c-6.191-6.303-12.356-12.817-18.328-19.36l535.496-488.434c0.797,0.871-0.808-0.823,0,0L-5.196,1019.738z M1065.021,980.481
			L511.972,511.944c0.744-0.876-0.716,0.911,0,0l569.95,447.839C1076.437,966.757,1070.75,973.721,1065.021,980.481z
			 M-41.205,980.265c-5.697-6.727-11.354-13.656-16.814-20.6l569.991-447.721c0.74,0.939-0.76-0.898,0,0L-41.205,980.265z
			 M1098.113,938.39L511.972,511.944c0.697-0.956-0.646,0.963,0,0l601.452,404.594
			C1108.483,923.871,1103.333,931.223,1098.113,938.39z M-74.203,938.271c-5.204-7.146-10.348-14.493-15.294-21.839l601.468-404.488
			c0.652,0.968-0.675-0.929,0,0L-74.203,938.271z M-104.034,893.953c-4.686-7.547-9.294-15.284-13.694-22.996l629.7-359.013
			c0.554,0.968-0.591-0.951,0,0L-104.034,893.953z M1128.041,893.941L511.972,511.944c0.62-0.999-0.563,0.988,0,0l629.751,359.021
			C1137.333,878.656,1132.729,886.387,1128.041,893.941z M-130.555,847.49c-4.104-7.851-8.121-15.894-11.943-23.909l654.47-311.637
			c0.489,1.024-0.515-0.989,0,0L-130.555,847.49z M1154.59,847.417L511.972,511.944c0.511-0.973-0.478,1.003,0,0l654.64,311.394
			C1162.769,831.408,1158.725,839.509,1154.59,847.417z M-153.582,799.169c-3.53-8.176-6.955-16.522-10.171-24.811l675.725-262.414
			c0.394,1.011-0.434-1.005,0,0L-153.582,799.169z M1177.73,798.819L511.972,511.944c0.45-1.038-0.396,1.021,0,0l675.948,261.98
			C1184.699,782.23,1181.271,790.606,1177.73,798.819z M-173.011,749.152c-2.913-8.414-5.709-17.005-8.312-25.533l693.294-211.675
			c0.326,1.064-0.358-1.038,0,0L-173.011,749.152z M1197.184,748.646L511.972,511.944c0.357-1.028-0.322,1.067,0,0l693.536,211.061
			C1202.899,731.576,1200.101,740.203,1197.184,748.646z M-188.688,697.758c-2.284-8.621-4.435-17.407-6.396-26.11l707.056-159.703
			c0.242,1.071-0.278-1.058,0,0L-188.688,697.758z M1212.845,697.15L511.972,511.944c0.283-1.066-0.24,1.074,0,0l707.242,159.111
			C1217.265,679.753,1215.12,688.532,1212.845,697.15z M-200.495,645.373c-1.632-8.75-3.123-17.649-4.43-26.45l716.896-106.979
			c0.165,1.103-0.205-1.101,0,0L-200.495,645.373z M1224.598,644.803L511.972,511.944c0.197-1.061-0.16,1.096,0,0l717.046,106.328
			C1227.714,627.115,1226.226,636.041,1224.598,644.803z M-208.365,592.393c-0.98-8.835-1.809-17.803-2.461-26.659l722.798-53.789
			c0.084,1.125-0.124-1.128,0,0L-208.365,592.393z M1232.421,591.83l-720.449-79.886c0.121-1.085-0.08,1.124,0,0l722.897,53.157
			C1234.221,574.001,1233.398,582.995,1232.421,591.83z M-212.302,539.137c-0.328-8.828-0.497-17.777-0.503-26.597l724.776-0.596
			c0.002,1.183-0.042-1.196,0,0L-212.302,539.137z M1236.319,538.585l-724.348-26.641c0.044-1.14,92.14,1.231,92.14,0.052
			l-92.14-0.052l724.831-0.712l-0.002-0.923l0.004,1.639C1236.805,520.809,1236.64,529.771,1236.319,538.585z M511.972,511.944
			l-724.319-25.949c0.315-8.828,0.795-17.771,1.43-26.578L511.972,511.944C511.888,513.124,512.017,510.761,511.972,511.944z
			 M511.972,511.944C511.927,510.755,512.063,513.137,511.972,511.944l722.806-54.423c0.657,8.802,1.16,17.736,1.499,26.551
			L511.972,511.944z M511.972,511.944l-720.477-79.169c0.962-8.811,2.103-17.729,3.389-26.505L511.972,511.944
			C511.807,513.085,512.097,510.805,511.972,511.944z M511.972,511.944C511.843,510.777,512.138,513.047,511.972,511.944
			l716.849-107.639c1.31,8.746,2.474,17.665,3.467,26.511L511.972,511.944z M511.972,511.944l-712.698-132.174
			c1.615-8.743,3.418-17.578,5.357-26.261L511.972,511.944C511.729,513.043,512.178,510.843,511.972,511.944z M511.972,511.944
			C511.766,510.837,512.221,513.031,511.972,511.944l706.965-160.335c1.962,8.672,3.79,17.504,5.431,26.25L511.972,511.944z
			 M511.972,511.944l-700.99-184.559c2.274-8.653,4.741-17.371,7.331-25.913L511.972,511.944
			C511.662,512.967,512.251,510.889,511.972,511.944z M511.972,511.944C511.692,510.886,512.292,512.982,511.972,511.944
			l693.164-212.278c2.608,8.528,5.094,17.229,7.39,25.861L511.972,511.944z M511.972,511.944l-685.37-236.077
			c2.914-8.459,6.025-16.975,9.248-25.311L511.972,511.944C511.576,512.967,512.334,510.897,511.972,511.944z M511.972,511.944
			C511.585,510.827,512.383,512.994,511.972,511.944l675.545-263.013c3.207,8.233,6.312,16.664,9.232,25.06L511.972,511.944z
			 M511.972,511.944L-153.97,225.627c3.521-8.185,7.249-16.423,11.078-24.482L511.972,511.944
			C511.49,512.962,512.415,510.92,511.972,511.944z M511.972,511.944C511.538,510.941,512.44,512.926,511.972,511.944
			l654.264-312.17c3.837,8.028,7.573,16.242,11.11,24.414L511.972,511.944z M511.972,511.944l-642.866-334.889
			c4.11-7.879,8.428-15.797,12.834-23.533L511.972,511.944C511.406,512.942,512.496,510.942,511.972,511.944z M511.972,511.944
			C511.444,510.937,512.535,512.927,511.972,511.944l629.457-359.526c4.398,7.691,8.713,15.571,12.828,23.425L511.972,511.944z
			 M511.972,511.944l-616.309-381.513c4.682-7.555,9.572-15.127,14.533-22.509L511.972,511.944
			C511.337,512.891,512.572,510.981,511.972,511.944z M511.972,511.944C511.384,510.996,512.598,512.867,511.972,511.944
			l601.183-404.981c4.968,7.367,9.869,14.931,14.564,22.479L511.972,511.944z M511.972,511.944L-74.462,85.981
			c5.223-7.184,10.651-14.368,16.136-21.355L511.972,511.944C511.267,512.842,512.644,511.023,511.972,511.944z M511.972,511.944
			C511.31,511.034,512.689,512.852,511.972,511.944l569.726-448.117c5.493,6.979,10.923,14.144,16.14,21.298L511.972,511.944z
			 M511.972,511.944L-41.441,43.911c5.735-6.778,11.675-13.542,17.656-20.103L511.972,511.944
			C511.203,512.787,512.709,511.074,511.972,511.944z M511.972,511.944C511.227,511.066,512.752,512.795,511.972,511.944
			L1047.137,23.1c5.977,6.539,11.913,13.281,17.646,20.036L511.972,511.944z M511.972,511.944L-5.448,4.414
			C0.771-1.926,7.188-8.232,13.625-14.328L511.972,511.944C511.149,512.724,512.777,511.123,511.972,511.944z M511.972,511.944
			C511.189,511.149,512.796,512.723,511.972,511.944L1009.674-14.99c6.47,6.111,12.907,12.422,19.134,18.756L511.972,511.944z
			 M511.972,511.944L33.328-32.316c6.646-5.846,13.492-11.652,20.352-17.255L511.972,511.944
			C511.074,512.678,512.839,511.182,511.972,511.944z M511.972,511.944C511.1,511.179,512.879,512.684,511.972,511.944
			L969.532-50.212c6.868,5.595,13.725,11.39,20.379,17.229L511.972,511.944z M511.972,511.944L74.691-66.097
			c7.072-5.355,14.335-10.647,21.586-15.729L511.972,511.944C511.043,512.597,512.893,511.25,511.972,511.944z M511.972,511.944
			C511.07,511.262,512.911,512.6,511.972,511.944L926.83-82.448c7.29,5.09,14.577,10.387,21.664,15.737L511.972,511.944z
			 M511.972,511.944L118.43-96.754c7.449-4.82,15.096-9.572,22.727-14.123L511.972,511.944
			C511.003,512.523,512.91,511.339,511.972,511.944z M511.972,511.944C511.002,511.315,512.953,512.526,511.972,511.944
			l369.827-623.44c7.627,4.53,15.284,9.271,22.756,14.089L511.972,511.944z M511.972,511.944L164.386-124.148
			c7.803-4.269,15.783-8.447,23.724-12.416L511.972,511.944C510.987,512.438,512.956,511.408,511.972,511.944z M511.972,511.944
			C511.008,511.42,512.978,512.443,511.972,511.944l322.653-649.138c8.001,3.981,16.023,8.161,23.851,12.425L511.972,511.944z
			 M511.972,511.944L212.268-148.089c8.09-3.677,16.354-7.25,24.56-10.62L511.972,511.944
			C510.954,512.361,512.992,511.481,511.972,511.944z M511.972,511.944C510.992,511.5,512.991,512.359,511.972,511.944
			L785.603-159.35c8.299,3.386,16.638,6.968,24.784,10.653L511.972,511.944z M511.972,511.944l-250.112-680.39
			c8.383-3.082,16.94-6.047,25.429-8.814L511.972,511.944C510.942,512.28,512.994,511.568,511.972,511.944z M511.972,511.944
			C510.943,511.568,513.017,512.284,511.972,511.944L734.99-177.817c8.516,2.751,17.097,5.703,25.502,8.77L511.972,511.944z
			 M511.972,511.944L312.97-185.104c8.555-2.44,17.28-4.755,25.931-6.878L511.972,511.944
			C510.885,512.213,513.04,511.641,511.972,511.944z M511.972,511.944C510.915,511.645,513.043,512.203,511.972,511.944
			l171.311-704.369c8.667,2.103,17.408,4.397,25.988,6.822L511.972,511.944z M511.972,511.944L365.145-197.908
			c8.721-1.798,17.591-3.456,26.361-4.929L511.972,511.944C510.877,512.129,513.072,511.716,511.972,511.944z M511.972,511.944
			C510.882,511.723,513.083,512.128,511.972,511.944l118.723-715.081c8.784,1.451,17.657,3.088,26.369,4.862L511.972,511.944z
			 M511.972,511.944L417.988-206.78c8.81-1.146,17.764-2.145,26.615-2.963L511.972,511.944
			C510.846,512.049,513.089,511.799,511.972,511.944z M511.972,511.944C510.845,511.802,513.116,512.048,511.972,511.944
			l65.614-721.854c8.842,0.798,17.784,1.771,26.579,2.892L511.972,511.944z M511.972,511.944l-40.747-723.666
			c8.821-0.492,17.77-0.828,26.6-0.998L511.972,511.944C510.791,511.967,513.159,511.878,511.972,511.944z M511.972,511.944
			C510.801,511.883,513.168,511.964,511.972,511.944l12.401-724.697c8.837,0.15,17.785,0.464,26.593,0.934L511.972,511.944z"/>
	</g>
</g>
</svg>
