<?xml version="1.0" encoding="utf-8"?>
<!-- Generator: Adobe Illustrator 16.0.4, SVG Export Plug-In . SVG Version: 6.00 Build 0)  -->
<!DOCTYPE svg PUBLIC "-//W3C//DTD SVG 1.1//EN" "http://www.w3.org/Graphics/SVG/1.1/DTD/svg11.dtd">
<svg version="1.1" id="Layer_1" xmlns="http://www.w3.org/2000/svg" xmlns:xlink="http://www.w3.org/1999/xlink" x="0px" y="0px"
	 width="1024px" height="1024px" viewBox="0 0 1024 1024" enable-background="new 0 0 1024 1024" xml:space="preserve">
<rect x="-49.237" y="-31.237" fill="#697478" width="1128.113" height="1073.237"/>
<g>
	<defs>
		<rect id="SVGID_1_" x="-19.658" y="-19.691" width="1068.531" height="1068.531"/>
	</defs>
	<clipPath id="SVGID_2_">
		<use xlink:href="#SVGID_1_"  overflow="visible"/>
	</clipPath>
	<g clip-path="url(#SVGID_2_)">
		<path fill="#27AAE1" d="M474.481,1263.775c-25.265-1.252-50.717-3.797-75.65-7.564l113.057-743.759c10.063,1.52-10.243-0.506,0,0
			L474.481,1263.775z M550.312,1263.73l-38.425-751.279c10.235-0.516-10.026,1.53,0,0l114.13,743.628
			C601.086,1259.881,575.611,1262.459,550.312,1263.73z M324.064,1240.975c-24.599-6.334-49.14-14.008-72.94-22.812l260.764-705.71
			c9.448,3.492-9.784-2.52,0,0L324.064,1240.975z M700.826,1240.75L511.888,512.452c9.835-2.546-9.478,3.511,0,0l261.716,705.445
			C749.87,1226.699,725.386,1234.387,700.826,1240.75z M181.006,1188.096c-22.721-11.145-45.142-23.592-66.644-36.998
			l397.526-638.646c8.631,5.382-9.107-4.472,0,0L181.006,1188.096z M843.745,1187.732L511.888,512.452c9.124-4.488-8.625,5.387,0,0
			l398.413,638.236C888.839,1164.096,866.446,1176.561,843.745,1187.732z M51.869,1107.594
			c-19.987-15.467-39.413-32.135-57.742-49.535l517.761-545.607c7.4,7.027-8.071-6.247,0,0L51.869,1107.594z M972.771,1107.096
			L511.888,512.452c8.076-6.264-7.403,7.043,0,0l518.528,545.083C1012.12,1074.941,992.725,1091.615,972.771,1107.096z
			 M-58.307,1003.002c-16.486-19.152-32.186-39.371-46.667-60.096l616.861-430.455c5.845,8.362-6.646-7.723,0,0L-58.307,1003.002z
			 M1082.838,1002.389l-570.95-489.937c6.653-7.754-5.825,8.359,0,0l617.547,429.785
			C1114.988,962.959,1099.312,983.199,1082.838,1002.389z M-145.391,878.305c-12.344-22.15-23.679-45.164-33.691-68.406
			l690.969-297.447c4.004,9.291-4.95-8.873,0,0L-145.391,878.305z M1169.764,877.639L511.888,512.452c4.921-8.853-4,9.308,0,0
			l691.521,296.693C1193.399,832.439,1182.083,855.486,1169.764,877.639z M-205.678,738.326
			c-7.614-24.213-14.06-49.084-19.161-73.926l736.726-151.949c2.03,9.884-3.033-9.648,0,0L-205.678,738.326z M1229.95,737.459
			L511.888,512.452c3.036-9.705-2.027,9.918,0,0l737.109,151.175C1243.932,688.424,1237.523,713.262,1229.95,737.459z
			 M-236.362,589.096c-2.541-25.029-3.843-50.529-3.872-75.797l752.122-0.847c0.007,10.304-1.03-10.149,0,0L-236.362,589.096z
			 M1260.442,588.289l-748.555-75.837c1.02-10.131,302.292,10.323,302.292,0.013l-302.292-0.013l752.347-1.166v1.179
			C1264.234,537.748,1262.962,563.256,1260.442,588.289z M511.888,512.452l-748.419-74.967c2.505-25.232,6.328-50.586,11.363-75.364
			L511.888,512.452C509.874,522.361,512.897,502.315,511.888,512.452z M511.888,512.452
			C510.845,502.293,513.935,522.361,511.888,512.452l736.775-152.773c5.113,24.738,9.019,50.066,11.609,75.275L511.888,512.452z
			 M511.888,512.452l-718.061-224.277c7.551-24.19,16.442-48.282,26.426-71.606L511.888,512.452
			C507.896,521.771,514.901,502.803,511.888,512.452z M511.888,512.452C508.833,502.78,515.892,521.72,511.888,512.452
			l690.847-298.225c10.052,23.257,19.027,47.319,26.675,71.521L511.888,512.452z M511.888,512.452l-658.065-364.419
			c12.265-22.117,25.813-43.873,40.265-64.66L511.888,512.452C506.066,520.813,516.818,503.565,511.888,512.452z M511.888,512.452
			C506.95,503.62,517.727,520.788,511.888,512.452L1128.489,81.34c14.545,20.771,28.173,42.497,40.504,64.579L511.888,512.452z
			 M511.888,512.452L-59.369,23.165c16.44-19.188,34.05-37.757,52.337-55.192L511.888,512.452
			C504.495,519.495,518.531,504.702,511.888,512.452z M511.888,512.452C505.219,504.719,519.3,519.475,511.888,512.452
			l517.375-546.163c18.345,17.376,36.013,35.889,52.512,55.021L511.888,512.452z M511.888,512.452L50.597-81.678
			c19.958-15.518,40.941-30.193,62.365-43.618L511.888,512.452C503.25,517.86,519.929,506.197,511.888,512.452z M511.888,512.452
			C503.825,506.222,520.522,517.816,511.888,512.452l397.041-639.068c21.473,13.359,42.522,27.978,62.556,43.45L511.888,512.452z
			 M511.888,512.452l-332.352-674.9c22.746-11.219,46.319-21.389,70.065-30.227L511.888,512.452
			C502.407,515.979,520.977,507.963,511.888,512.452z M511.888,512.452C502.78,507.993,521.375,515.943,511.888,512.452l260.165-706
			c23.777,8.759,47.389,18.853,70.18,29.998L511.888,512.452z M511.888,512.452L322.438-215.629
			c24.516-6.372,49.654-11.553,74.715-15.403L511.888,512.452C501.862,513.993,521.679,509.905,511.888,512.452z M511.888,512.452
			C502.107,509.941,521.925,513.959,511.888,512.452l112.486-743.86c25.092,3.77,50.253,8.867,74.777,15.157L511.888,512.452z
			 M511.888,512.452l-39.029-751.216c12.891-0.666,26.023-1.004,39.037-1.011c12.3,0,24.64,0.296,36.785,0.883L511.888,512.452
			C501.699,511.959,522.156,511.919,511.888,512.452z"/>
	</g>
</g>
</svg>
